PathFileType	4	(X/Y/Z)	Patient4_TMGait_0pt7_02_left_26.trc.trc
DataRate	CameraRate	NumFrames	NumMarkers	Units	OrigDataRate	OrigDataStartFrame	OrigNumFrames
86.419753086420	86.419753086420	4	33	mm	86.419753086420	36	       141
Frame#	Time	Sacral			L.Shoulder			Chest			R.Shoulder			Neck			R.ASIS			L.ASIS			R.Thigh.Superior			R.Thigh.Lateral			R.Thigh.Inferior			R.Patella			L.Thigh.Superior			L.Thigh.Lateral			L.Thigh.Inferior			L.Patella			L.Shank.Superior			L.Shank.Lateral			L.Shank.Inferior			R.Shank.Superior			R.Shank.Lateral			R.Shank.Inferior			R.Heel			R.Midfoot.Superior			R.Midfoot.Lateral			R.Toe			L.Heel			L.Midfoot.Lateral			L.Midfoot.Superior			L.Toe			L.Elbow			L.Wrist			R.Elbow			R.Wrist			
		X1	Y1	Z1	X2	Y2	Z2	X3	Y3	Z3	X4	Y4	Z4	X5	Y5	Z5	X6	Y6	Z6	X7	Y7	Z7	X8	Y8	Z8	X9	Y9	Z9	X10	Y10	Z10	X11	Y11	Z11	X12	Y12	Z12	X13	Y13	Z13	X14	Y14	Z14	X15	Y15	Z15	X16	Y16	Z16	X17	Y17	Z17	X18	Y18	Z18	X19	Y19	Z19	X20	Y20	Z20	X21	Y21	Z21	X22	Y22	Z22	X23	Y23	Z23	X24	Y24	Z24	X25	Y25	Z25	X26	Y26	Z26	X27	Y27	Z27	X28	Y28	Z28	X29	Y29	Z29	X30	Y30	Z30	X31	Y31	Z31	X32	Y32	Z32	X33	Y33	Z33	

36	30.005000000000	882.698857094743	1007.874524704973	469.555283158621	1050.001484559206	1423.342329226979	271.116919166334	1170.812646311576	1349.739581287372	418.570419640858	1115.216177743668	1432.360226455937	598.675215270943	1076.126668636294	1486.285819250943	423.780233912369	1105.663990366831	933.470097327467	578.689363556626	1086.854870902786	947.853838414237	303.858646490357	1103.957247776575	719.301599287989	561.654229941926	998.904367450641	627.185713785347	623.329602350982	1065.962233915028	555.882176528764	551.071750970956	1042.918279871781	457.266625583452	564.884774306911	1162.491417808899	767.834615542356	343.199595356769	1104.220730520131	638.231877286946	273.104084610269	1202.761221986232	575.100338464346	336.276459410223	1217.436962314630	501.939185749794	341.220791815826	1192.951676911030	426.521049657795	331.185567834950	1110.695927169257	309.345936207468	274.741124372302	1167.785173048289	197.773849929655	340.332038408235	975.761585824707	387.683035804463	570.072644286019	865.215291899535	326.853209122041	631.812486871457	865.486506922915	219.487659102197	575.079254689240	675.085989450028	107.386507568882	548.993403134653	855.589393237184	105.956399243667	582.116216023270	753.023717192700	69.199475553166	618.918409540270	952.133761098099	36.272442939169	601.149112709127	1046.365433273821	39.217773582606	374.375390558643	1122.151532884036	36.827001461957	295.423005368171	1203.976464001328	98.109309304005	324.263556572044	1333.567726125539	45.708673447147	298.716796120342	882.350382652846	1112.901944416297	191.397283522736	806.950691420606	863.751551461027	216.482668225250	1259.845371880440	1124.663668163620	704.375806462551	1426.403177467937	1263.705639614494	582.287258746778	
37	30.016571428571	882.548556120034	1008.982778513439	466.556102534896	1050.355768610619	1424.742309519811	269.112887923908	1170.866073927130	1351.091765804893	416.750358865789	1114.659181563911	1433.323470851616	596.943449901612	1076.094858291392	1487.425671425765	421.932909259125	1105.407125676942	934.502468665538	575.762320583614	1087.173029041998	949.007763481765	301.202712566817	1107.019806031306	720.599328112664	559.950565577164	1003.728794555303	627.091634242168	621.739918716619	1072.843232880194	556.333877590329	550.150154088168	1050.576220450132	456.102901982841	565.514429044580	1161.774546626319	767.081309753302	339.746957894030	1100.998189174996	637.888762936055	271.258814487887	1199.153644941443	573.964248051859	334.216726140136	1213.062211997467	501.068845591006	339.754430416414	1187.976334204001	425.829672199577	329.961658016370	1104.842716022147	309.125306398955	273.975263244561	1160.952192754217	197.400825924290	339.998026216422	980.968661996094	387.841229327920	570.372033859994	867.903299614312	330.999682325835	631.410056306240	865.650173128028	223.069167523483	575.848905953138	671.989739315180	118.150228133387	549.406761010206	852.119993047359	108.198685176354	583.001130869854	747.863995992073	75.825191589046	619.105426455943	944.364421283462	35.572211307667	601.087044200106	1038.391437079313	39.160990347480	374.323529213939	1114.154336969687	36.796942393939	295.366671773524	1196.006262163703	98.077064581038	324.230507237322	1325.604190049045	45.516150216706	298.593320916610	887.365274672623	1111.489133983808	187.084541310261	821.112931172772	859.474398336744	210.813321876200	1249.338636946818	1120.485348608242	706.074554498279	1422.485228578472	1251.971095240040	584.553089765931	
38	30.028142857143	882.188916863891	1009.992859966794	463.572415647125	1050.846011313509	1426.019882280118	267.133375397466	1170.864333332463	1352.336563049711	415.105460129999	1113.843898947723	1434.179922389470	595.303203702221	1075.923376990147	1488.456819707687	420.109522926374	1104.955095405240	935.411161282048	573.010914867345	1087.427931147782	949.995851822506	298.798660531344	1110.482060671343	721.963792186719	558.263966024558	1009.258238730624	626.869205591944	620.167993264043	1080.404335506892	556.868402838037	549.036283154460	1058.995760670238	455.048564973683	565.769141337231	1160.708204931542	766.048183124795	336.433378532291	1097.479458184264	637.509656882067	269.412026711824	1195.143285914613	572.768112709849	332.264738898897	1208.258301129398	500.146289353109	338.286377801532	1182.614249821034	425.111566308879	328.701953551256	1098.682646127638	308.817160621737	273.195079268241	1153.941089073011	197.005365776234	339.638492279353	987.004966751703	388.063037985230	570.384447830321	871.601208351949	335.378766573078	630.841404385842	866.596080090208	227.032258890564	576.405529463001	669.938854758201	130.022240821069	549.666885121898	849.149947080574	110.990254447086	583.787303657815	743.353010208608	83.523863888090	619.196369846699	936.661360658339	34.648819873597	601.109070513209	1030.387270836372	39.101128563703	374.309563728968	1106.115236420263	36.718938677014	295.328649825578	1188.029392501434	97.955326376621	324.189044625303	1317.617621005541	45.182734270855	298.469258639668	892.510890004586	1110.104793394734	182.692401820413	836.328806601395	855.360745436838	204.900238013791	1238.067625707372	1116.433307419098	707.567637073182	1418.583249612918	1238.727004860550	587.026747925083	
39	30.039714285714	881.592514097795	1010.873277075703	460.640227500791	1051.477385107862	1427.139616554678	265.204566658283	1170.793100900930	1353.409542238336	413.669826283731	1112.784732617066	1434.904023600136	593.775439569527	1075.630705447450	1489.360750845992	418.333893125961	1104.276561375724	936.184515479725	570.479448869281	1087.562714645412	950.825823272763	296.628847515413	1114.285437467276	723.444082773908	556.549188316264	1015.481131567834	626.579298970024	618.595992152165	1088.579410254966	557.553611998231	547.677794285066	1068.128007066915	454.184447731664	565.565222273055	1159.324366267089	764.873763010182	333.325269507214	1093.808784485669	637.171583857676	267.577124140578	1190.854828867333	571.588308805188	330.438779873550	1203.154965539776	499.212204768964	336.833015204741	1176.989685694074	424.389757499618	327.430987175052	1092.321391215586	308.470309721972	272.387310789373	1146.793002649219	196.604136978498	339.258755652296	993.852744653324	388.390531514239	570.044521675619	876.326782734699	339.982310279462	630.071070885262	868.354658294985	231.391960754171	576.697021188986	669.060248919892	142.943799594525	549.722957466631	846.743297773423	114.398272992862	584.446087260968	739.614143020087	92.309203606517	619.164086404566	929.096567273543	33.524516052631	601.237856056123	1022.349636640960	39.049468824278	374.306772518959	1098.038384694484	36.614677399952	295.291208936654	1180.040714100663	97.774411052504	324.132196006571	1309.607072860289	44.755193558317	298.345529137718	897.855530130363	1108.686361090654	178.244371417497	852.587880108317	851.472822221537	198.781759860545	1226.154488988395	1112.541365017099	708.775137424779	1414.609679147033	1223.925128760100	589.734013611624	
